<mxfile host="app.diagrams.net" modified="2024-07-19T07:26:49.898Z" agent="Mozilla/5.0 (Macintosh; Intel Mac OS X 10_15_7) AppleWebKit/537.36 (KHTML, like Gecko) Chrome/126.0.0.0 Safari/537.36" etag="Zr1KwJ-rn08TAPjU12Zg" version="24.7.0" type="device">
  <diagram name="Page-1" id="G04iGvMhT8m4J7l_1adT">
    <mxGraphModel dx="954" dy="532" grid="1" gridSize="10" guides="1" tooltips="1" connect="1" arrows="1" fold="1" page="1" pageScale="1" pageWidth="850" pageHeight="1100" math="0" shadow="0">
      <root>
        <mxCell id="0" />
        <mxCell id="1" parent="0" />
        <mxCell id="Hn0y-asH6NsinCYjjXiC-12" style="edgeStyle=orthogonalEdgeStyle;rounded=0;orthogonalLoop=1;jettySize=auto;html=1;entryX=0.5;entryY=0;entryDx=0;entryDy=0;fillColor=#dae8fc;strokeColor=#6c8ebf;" edge="1" parent="1" source="Hn0y-asH6NsinCYjjXiC-4" target="Hn0y-asH6NsinCYjjXiC-11">
          <mxGeometry relative="1" as="geometry" />
        </mxCell>
        <mxCell id="Hn0y-asH6NsinCYjjXiC-17" value="register" style="edgeLabel;html=1;align=center;verticalAlign=middle;resizable=0;points=[];" vertex="1" connectable="0" parent="Hn0y-asH6NsinCYjjXiC-12">
          <mxGeometry x="-0.1755" y="-1" relative="1" as="geometry">
            <mxPoint x="-3" y="-3" as="offset" />
          </mxGeometry>
        </mxCell>
        <mxCell id="Hn0y-asH6NsinCYjjXiC-13" style="edgeStyle=orthogonalEdgeStyle;rounded=0;orthogonalLoop=1;jettySize=auto;html=1;entryX=0.5;entryY=1;entryDx=0;entryDy=0;fillColor=#dae8fc;strokeColor=#6c8ebf;" edge="1" parent="1" source="Hn0y-asH6NsinCYjjXiC-6" target="Hn0y-asH6NsinCYjjXiC-11">
          <mxGeometry relative="1" as="geometry" />
        </mxCell>
        <mxCell id="Hn0y-asH6NsinCYjjXiC-18" value="register" style="edgeLabel;html=1;align=center;verticalAlign=middle;resizable=0;points=[];" vertex="1" connectable="0" parent="Hn0y-asH6NsinCYjjXiC-13">
          <mxGeometry x="-0.2436" relative="1" as="geometry">
            <mxPoint as="offset" />
          </mxGeometry>
        </mxCell>
        <mxCell id="Hn0y-asH6NsinCYjjXiC-23" value="" style="group" vertex="1" connectable="0" parent="1">
          <mxGeometry x="320" y="80" width="230" height="110" as="geometry" />
        </mxCell>
        <mxCell id="Hn0y-asH6NsinCYjjXiC-15" value="" style="group;fillColor=#d5e8d4;strokeColor=#82b366;container=0;" vertex="1" connectable="0" parent="Hn0y-asH6NsinCYjjXiC-23">
          <mxGeometry width="230" height="110" as="geometry" />
        </mxCell>
        <mxCell id="Hn0y-asH6NsinCYjjXiC-4" value="" style="rounded=0;whiteSpace=wrap;html=1;container=0;fillColor=#d5e8d4;strokeColor=#82b366;" vertex="1" parent="Hn0y-asH6NsinCYjjXiC-23">
          <mxGeometry width="230" height="110" as="geometry" />
        </mxCell>
        <mxCell id="Hn0y-asH6NsinCYjjXiC-1" value="Service A" style="rounded=1;whiteSpace=wrap;html=1;fillColor=#dae8fc;strokeColor=#6c8ebf;container=0;" vertex="1" parent="Hn0y-asH6NsinCYjjXiC-23">
          <mxGeometry x="100" y="30" width="120" height="60" as="geometry" />
        </mxCell>
        <mxCell id="Hn0y-asH6NsinCYjjXiC-5" value="Sidecar A" style="text;html=1;align=center;verticalAlign=middle;whiteSpace=wrap;rounded=0;container=0;" vertex="1" parent="Hn0y-asH6NsinCYjjXiC-23">
          <mxGeometry width="60" height="30" as="geometry" />
        </mxCell>
        <mxCell id="Hn0y-asH6NsinCYjjXiC-20" value="Port: 8085" style="text;html=1;align=center;verticalAlign=middle;whiteSpace=wrap;rounded=0;container=0;" vertex="1" parent="Hn0y-asH6NsinCYjjXiC-23">
          <mxGeometry x="60" y="30" width="60" height="30" as="geometry" />
        </mxCell>
        <mxCell id="Hn0y-asH6NsinCYjjXiC-24" value="" style="group" vertex="1" connectable="0" parent="1">
          <mxGeometry x="320" y="320" width="230" height="110" as="geometry" />
        </mxCell>
        <mxCell id="Hn0y-asH6NsinCYjjXiC-9" value="" style="group;fillColor=#d5e8d4;strokeColor=#82b366;container=0;" vertex="1" connectable="0" parent="Hn0y-asH6NsinCYjjXiC-24">
          <mxGeometry width="230" height="110" as="geometry" />
        </mxCell>
        <mxCell id="Hn0y-asH6NsinCYjjXiC-6" value="" style="rounded=0;whiteSpace=wrap;html=1;container=0;fillColor=#d5e8d4;strokeColor=#82b366;" vertex="1" parent="Hn0y-asH6NsinCYjjXiC-24">
          <mxGeometry width="230" height="110" as="geometry" />
        </mxCell>
        <mxCell id="Hn0y-asH6NsinCYjjXiC-2" value="Service B" style="rounded=1;whiteSpace=wrap;html=1;fillColor=#dae8fc;strokeColor=#6c8ebf;container=0;" vertex="1" parent="Hn0y-asH6NsinCYjjXiC-24">
          <mxGeometry x="100" y="30" width="120" height="60" as="geometry" />
        </mxCell>
        <mxCell id="Hn0y-asH6NsinCYjjXiC-7" value="Sidecar B" style="text;html=1;align=center;verticalAlign=middle;whiteSpace=wrap;rounded=0;container=0;" vertex="1" parent="Hn0y-asH6NsinCYjjXiC-24">
          <mxGeometry width="60" height="30" as="geometry" />
        </mxCell>
        <mxCell id="Hn0y-asH6NsinCYjjXiC-21" value="Port: 8090" style="text;html=1;align=center;verticalAlign=middle;whiteSpace=wrap;rounded=0;container=0;" vertex="1" parent="Hn0y-asH6NsinCYjjXiC-24">
          <mxGeometry x="70" y="30" width="60" height="30" as="geometry" />
        </mxCell>
        <mxCell id="Hn0y-asH6NsinCYjjXiC-25" value="" style="group" vertex="1" connectable="0" parent="1">
          <mxGeometry x="600" y="230" width="150" height="60" as="geometry" />
        </mxCell>
        <mxCell id="Hn0y-asH6NsinCYjjXiC-11" value="Placement" style="shape=process;whiteSpace=wrap;html=1;backgroundOutline=1;container=0;fillColor=#d5e8d4;strokeColor=#82b366;" vertex="1" parent="Hn0y-asH6NsinCYjjXiC-25">
          <mxGeometry x="30" width="120" height="60" as="geometry" />
        </mxCell>
        <mxCell id="Hn0y-asH6NsinCYjjXiC-19" value="Port: 50005" style="text;html=1;align=center;verticalAlign=middle;whiteSpace=wrap;rounded=0;container=0;" vertex="1" parent="Hn0y-asH6NsinCYjjXiC-25">
          <mxGeometry width="70" height="30" as="geometry" />
        </mxCell>
        <mxCell id="Hn0y-asH6NsinCYjjXiC-27" style="edgeStyle=orthogonalEdgeStyle;rounded=0;orthogonalLoop=1;jettySize=auto;html=1;entryX=0;entryY=0.75;entryDx=0;entryDy=0;fillColor=#f8cecc;strokeColor=#b85450;" edge="1" parent="1" source="Hn0y-asH6NsinCYjjXiC-26" target="Hn0y-asH6NsinCYjjXiC-2">
          <mxGeometry relative="1" as="geometry" />
        </mxCell>
        <mxCell id="Hn0y-asH6NsinCYjjXiC-28" style="edgeStyle=orthogonalEdgeStyle;rounded=0;orthogonalLoop=1;jettySize=auto;html=1;entryX=0;entryY=0.75;entryDx=0;entryDy=0;" edge="1" parent="1" source="Hn0y-asH6NsinCYjjXiC-26" target="Hn0y-asH6NsinCYjjXiC-1">
          <mxGeometry relative="1" as="geometry" />
        </mxCell>
        <mxCell id="Hn0y-asH6NsinCYjjXiC-29" value="trigger sayHello" style="edgeLabel;html=1;align=center;verticalAlign=middle;resizable=0;points=[];" vertex="1" connectable="0" parent="Hn0y-asH6NsinCYjjXiC-28">
          <mxGeometry x="-0.6695" relative="1" as="geometry">
            <mxPoint y="-1" as="offset" />
          </mxGeometry>
        </mxCell>
        <mxCell id="Hn0y-asH6NsinCYjjXiC-26" value="" style="shape=image;html=1;verticalAlign=top;verticalLabelPosition=bottom;labelBackgroundColor=#ffffff;imageAspect=0;aspect=fixed;image=https://cdn2.iconfinder.com/data/icons/social-media-2198/64/chrome_social_media_network-128.png" vertex="1" parent="1">
          <mxGeometry x="40" y="190" width="128" height="128" as="geometry" />
        </mxCell>
        <mxCell id="Hn0y-asH6NsinCYjjXiC-30" style="edgeStyle=orthogonalEdgeStyle;rounded=0;orthogonalLoop=1;jettySize=auto;html=1;entryX=0.5;entryY=1;entryDx=0;entryDy=0;fillColor=#f8cecc;strokeColor=#b85450;" edge="1" parent="1" source="Hn0y-asH6NsinCYjjXiC-2" target="Hn0y-asH6NsinCYjjXiC-1">
          <mxGeometry relative="1" as="geometry" />
        </mxCell>
        <mxCell id="Hn0y-asH6NsinCYjjXiC-31" value="internal request" style="edgeLabel;html=1;align=center;verticalAlign=middle;resizable=0;points=[];" vertex="1" connectable="0" parent="Hn0y-asH6NsinCYjjXiC-30">
          <mxGeometry x="0.0222" relative="1" as="geometry">
            <mxPoint as="offset" />
          </mxGeometry>
        </mxCell>
      </root>
    </mxGraphModel>
  </diagram>
</mxfile>
